#N canvas 686 379 670 439 10;
#X obj 169 18 adc~;
#X floatatom 164 140 5 0 0 0 - - -;
#X obj 170 86 env~;
#X obj 196 185 >;
#X floatatom 234 153 5 0 0 0 - - -;
#X obj 202 245 tgl 15 0 empty empty empty 17 7 0 10 -262144 -1 -1 0
1;
#X connect 0 0 2 0;
#X connect 1 0 3 0;
#X connect 2 0 1 0;
#X connect 3 0 5 0;
#X connect 4 0 3 1;
