#N canvas 646 183 450 390 10;
#X obj 169 18 adc~;
#X floatatom 163 76 5 0 0 0 - - -;
#X obj 170 50 env~;
#X obj 196 103 hsl 128 15 0 100 0 0 empty empty empty -2 -8 0 10 -262144
-1 -1 0 1;
#X obj 103 352 dac~;
#X obj 162 318 osc~ 520;
#X connect 0 0 2 0;
#X connect 1 0 3 0;
#X connect 1 0 5 0;
#X connect 2 0 1 0;
#X connect 5 0 4 0;
#X connect 5 0 4 1;
