#N canvas 686 379 450 300 10;
#X obj 169 18 adc~;
#X floatatom 164 140 5 0 0 0 - - -;
#X obj 170 86 env~;
#X obj 160 187 hsl 128 15 0 100 0 0 empty empty empty -2 -8 0 10 -262144
-1 -1 3815 1;
#X connect 0 0 2 0;
#X connect 1 0 3 0;
#X connect 2 0 1 0;
